    <svg
      xmlns="http://www.w3.org/2000/svg"
      width="347"
      height="100"
      fill="none"
      viewBox="0 0 347 100"
    >
      <path
        fill="#fff"
        d="M56 0h-9v69h9V0zM44 0h-9v69h9V0zM31 24h-9v21h9V24zM19 30H0v9h19v-9zM300 0h-9v69h9V0zM312 0h-9v69h9V0zM325 24h-9v21h9V24zM347 30h-19v9h19v-9zM96.849 26.06c.41-2.776-.017-4.806-1.283-6.091-1.266-1.286-3.507-1.942-6.72-1.969H74.637l-.536 4.383c.46.074 1.026.156 1.704.241.678.086 1.065.141 1.168.167l-2.604 16.38a70.969 70.969 0 00-2.834.372L71 44h12.33l.499-4.383a28.333 28.333 0 00-3.064-.446l.651-3.714h5.19c3.167 0 5.523-.563 7.065-1.69 1.541-1.127 2.505-2.984 2.89-5.571l.288-2.136zm-6.012.074l-.115.929c-.202 1.31-.572 2.176-1.11 2.6-.54.423-1.541.644-3.007.661h-4.442l1.072-7.28h4.672c1.225 0 2.068.248 2.528.743.46.495.593 1.278.402 2.347zM118.635 35.94h-3.941l-1.202 3.12h-7.882l.788-5.423h6.306l.751-5.311h-6.306l.75-5.386h7.771l.338 3.12h3.866L121 18H99.566l-.526 4.383c.05 0 .965.122 2.741.371l-2.553 16.417c-.3.049-1.201.175-2.703.372L96 44h21.509l1.126-8.06zM125.626 22.791l-2.453 16.418c-.89.074-1.777.185-2.668.334L120 44h10.53l.469-4.42a23.918 23.918 0 00-.902-.093 37.114 37.114 0 01-.937-.093l.649-4.085h4.904c.24.495.517 1.758.829 3.788L134.857 44h8.98l.468-4.234a20.637 20.637 0 00-2.488-.372 17.038 17.038 0 00-1.767-4.717 13.943 13.943 0 003.138-2.971 8.465 8.465 0 001.406-3.9l.288-2.006c.361-2.724-.108-4.705-1.406-5.943C142.178 18.62 139.99 18 136.913 18h-13.487l-.505 4.383c.433.074.966.156 1.605.241.638.086.984.141 1.1.167zm5.878.26h4.868c1.108 0 1.884.23 2.326.688.442.458.605 1.17.487 2.135l-.181 1.709a2.99 2.99 0 01-.354 1.187 2.91 2.91 0 01-.8.93c-.77.55-1.695.824-2.632.78h-4.796l1.082-7.429zM156.204 43.998h1.703c3.334 0 5.809-.566 7.426-1.698 1.618-1.132 2.605-3.017 2.963-5.654l.223-1.604c.271-1.913.08-3.362-.575-4.347-.654-.986-1.907-1.713-3.759-2.183l-7.259-1.791c-.667-.176-1.111-.418-1.296-.747a2.028 2.028 0 01-.111-1.38l.037-.336a2.586 2.586 0 011.037-1.866c.566-.373 1.433-.578 2.592-.578h1.296c1.751 0 2.961.161 3.63.485l.148 3.395h4.852l.889-7.239A31.713 31.713 0 00160.741 17h-1.222c-3.334 0-5.809.566-7.426 1.698-1.618 1.132-2.612 3.004-2.982 5.616l-.037.373c-.323 2.164-.151 3.731.519 4.702.669.97 2.051 1.778 4.148 2.425l5.889 1.493c1.233.347 2.007.671 2.314.97.308.298.415.832.315 1.605l-.111.746c-.148.996-.518 1.672-1.111 2.033-.593.362-1.604.541-3.037.541h-.593c-2.049 0-3.493-.174-4.333-.522l-.148-3.265h-5.111L147 42.169a45.63 45.63 0 004.889 1.455c1.422.27 2.868.395 4.315.373zM179.948 44h3.711c6.565 0 10.339-3.426 11.324-10.279l.833-5.958c.483-3.426.015-6.077-1.401-7.951-1.416-1.875-3.79-2.812-7.12-2.812h-3.711c-6.716 0-10.579 3.488-11.589 10.465l-.834 5.996c-.454 3.351.051 5.946 1.515 7.783 1.465 1.837 3.889 2.756 7.272 2.756zm-2.576-9.794l.985-7.04c.477-3.1 2.156-4.652 5.037-4.654h2.651c1.563 0 2.611.31 3.144.93.532.621.684 1.764.454 3.427l-1.022 7.039c-.253 1.638-.777 2.805-1.572 3.5-.795.695-1.963 1.043-3.503 1.043h-2.651c-1.541 0-2.576-.298-3.106-.894-.53-.596-.669-1.713-.417-3.352zM196.502 39.543L196 44h9.976l.467-4.383c-.072 0-.359-.048-.862-.148-.502-.1-.886-.16-1.148-.186l1.615-11.477L213.656 44h6.136l2.978-21.134c1.22-.149 2.13-.285 2.728-.409L226 18h-10.12l-.502 4.383.987.167c.488.085.868.141 1.13.167l-1.722 12.443L207.681 18h-8.254l-.502 4.383 2.691.446-2.44 16.38c-.9.074-1.791.185-2.674.334zM243.908 18h-12.477l-.519 4.383 1.299.204c.546.086.94.141 1.188.167l-7.834 16.417c-1.022.056-2.04.18-3.045.372L222 44h11.065l.483-4.383a13.12 13.12 0 01-.798-.186 11.048 11.048 0 00-.836-.185l1.114-2.786h7.538l.408 2.786a22.49 22.49 0 00-2.487.297l-.52 4.457h12.55l.483-4.383a24.157 24.157 0 00-3.119-.446L243.908 18zm-8.949 13.223l3.602-8.06h.074l1.374 8.06h-5.05zM268.686 39.06h-7.4l2.358-16.194a24.784 24.784 0 003.555-.409l.508-4.457h-12.261l-.508 4.383c.747.122 1.632.249 2.648.371l-2.466 16.417c-.898.1-1.768.223-2.612.372L252 44h20.803L274 35.309h-4.063l-1.251 3.751z"
      ></path>
      <path
        fill="#FDBE0F"
        d="M117 73h108.606L230 52H121.394L117 73zm96.289-17.094h1.796c1.619 0 2.772.48 3.459 1.44.687.96.914 2.318.681 4.077l-.405 3.055c-.478 3.513-2.312 5.269-5.502 5.269h-1.803c-1.631 0-2.805-.471-3.522-1.413-.716-.942-.962-2.272-.736-3.99l.405-3.073c.491-3.58 2.366-5.368 5.627-5.365zm-17.664.23h12.033l-.588 4.37h-2.117l.056-1.755h-2.172l-1.177 8.285c.405.038.901.107 1.472.21l-.239 2.253h-6.054l.258-2.291c.173-.027.46-.065.864-.115l.644-.076 1.178-8.266h-2.19l-.423 1.756h-2.116l.571-4.372zm-6.625 0h5.797l-.258 2.29a16.17 16.17 0 01-1.38.172l-1.251 8.438c.147 0 .588.084 1.324.21l-.239 2.253h-5.741l.258-2.291c.294-.05.736-.115 1.325-.191l1.251-8.42c-.158 0-.607-.083-1.343-.21l.257-2.252zm-11.721 0h10.507l-.552 4.142h-1.895l-.166-1.604h-3.809l-.368 2.768h3.092l-.368 2.73h-3.092l-.368 2.788h3.864l.589-1.604h1.932l-.552 4.143h-10.562l.258-2.291c.736-.103 1.178-.164 1.325-.191l1.251-8.438-1.343-.191.257-2.253zm-12.803 11.072c.295-.05.737-.115 1.325-.191l1.252-8.42c-.173 0-.622-.083-1.344-.21l.258-2.252h10.598l-.552 4.143h-1.898l-.166-1.604h-3.897l-.423 3.15h3.827l-.368 2.73h-3.846l-.368 2.501c.122 0 .486.042 1.104.084.618.042.99.08 1.152.107l-.239 2.253h-6.661l.246-2.291zm-11.408-11.073h6.878c1.57 0 2.688.318 3.353.955.659.637.901 1.653.736 3.054l-.151 1.031a4.289 4.289 0 01-.714 2.005 7.21 7.21 0 01-1.601 1.527c.416.757.72 1.574.902 2.425.425.037.848.1 1.266.19l-.236 2.177h-4.603l.368-2.52a9.502 9.502 0 00-.424-1.948h-2.502l-.331 2.1.478.046.46.05-.239 2.29h-5.373l.258-2.29c.453-.077.906-.134 1.358-.172l1.254-8.438c-.051 0-.239-.042-.563-.088-.323-.046-.596-.084-.817-.122l.243-2.272zm-11.724 0h10.506l-.552 4.143h-1.895l-.166-1.604h-3.809l-.368 2.768h3.092l-.368 2.73h-3.092l-.386 2.788h3.864l.589-1.604h1.925l-.552 4.143h-10.536l.257-2.291c.736-.103 1.178-.164 1.325-.191l1.251-8.438-1.343-.191.258-2.253zm-13.705 11.073c.294-.05.736-.115 1.362-.191l1.251-8.42c-.052 0-.239-.041-.563-.087-.324-.046-.596-.084-.817-.122l.257-2.253h6.834c1.546 0 2.621.351 3.228 1.012.607.66.813 1.707.618 3.13l-.147 1.089c-.184 1.336-.648 2.293-1.391 2.871-.744.578-1.881.868-3.412.87h-2.484l-.313 1.91c.495.05.986.126 1.473.229l-.24 2.253h-5.925l.269-2.291z"
      ></path>
      <path
        fill="#FDBE0F"
        d="M212.04 66.994h1.486a3.156 3.156 0 001.965-.523c.515-.478.826-1.099.879-1.756l.573-3.53c.127-.833.042-1.408-.255-1.718-.297-.31-.883-.467-1.761-.467h-1.486c-1.613 0-2.554.778-2.823 2.335l-.551 3.53c-.139.821-.061 1.382.233 1.68.297.31.879.449 1.74.449zM160.368 62.579c.148-.133.271-.303.361-.5.09-.196.144-.413.159-.637l.082-.917c.039-.199.04-.407.002-.606a1.448 1.448 0 00-.221-.543c-.301-.282-.679-.414-1.057-.367h-2.207L157 62.998h2.171c.426.022.846-.125 1.197-.419zM136.394 62.653c.244-.236.411-.716.505-1.432l.052-.51a1.77 1.77 0 00.03-.672 1.66 1.66 0 00-.222-.622 1.475 1.475 0 00-.539-.34 1.321 1.321 0 00-.609-.067h-2.124L133 63h2.002c.696.011 1.141-.107 1.392-.347z"
      ></path>
      <path
        fill="#E1E1E6"
        d="M83.846 87.047V97h-1.3v-9.953h1.3zm3.199 0v1.08h-7.69v-1.08h7.69zm2.03 3.719V97h-1.264v-7.397h1.23l.034 1.163zm2.31-1.204l-.006 1.176a1.82 1.82 0 00-.3-.04 3.199 3.199 0 00-.315-.014c-.292 0-.55.045-.773.136a1.603 1.603 0 00-.567.383c-.155.164-.278.36-.37.588-.086.223-.143.47-.17.738l-.356.205c0-.446.044-.865.13-1.257a3.42 3.42 0 01.417-1.04c.187-.305.424-.542.711-.71.292-.174.638-.26 1.04-.26.09 0 .195.011.314.034.118.018.2.039.246.061zm4.102 7.575a3.64 3.64 0 01-1.401-.26 3.179 3.179 0 01-1.073-.745 3.314 3.314 0 01-.684-1.135 4.162 4.162 0 01-.24-1.436v-.287c0-.601.09-1.137.267-1.606.178-.474.42-.875.725-1.203a3.103 3.103 0 011.04-.745 2.985 2.985 0 011.202-.253c.529 0 .985.09 1.367.273.388.183.704.438.95.766.247.323.429.706.547 1.148.119.438.178.916.178 1.436v.567h-5.523v-1.032H97.1v-.096a3.153 3.153 0 00-.206-.957 1.72 1.72 0 00-.546-.765c-.251-.2-.593-.301-1.026-.301a1.722 1.722 0 00-1.415.718 2.685 2.685 0 00-.403.868 4.4 4.4 0 00-.144 1.182v.287c0 .351.048.682.144.992.1.305.244.574.43.806.192.233.422.415.691.547.273.132.583.198.93.198.446 0 .825-.09 1.134-.273a2.81 2.81 0 00.814-.731l.765.608c-.159.242-.362.472-.608.69-.246.22-.549.397-.909.534-.355.136-.777.205-1.265.205zm5.729-7.534V97h-1.272v-7.397h1.272zm-1.367-1.961c0-.206.061-.379.184-.52.128-.141.315-.212.561-.212.241 0 .426.07.553.212a.729.729 0 01.199.52.712.712 0 01-.199.505c-.127.137-.312.206-.553.206-.246 0-.433-.069-.561-.206a.746.746 0 01-.184-.505zm4.662 3.54V97h-1.265v-7.397h1.196l.069 1.58zm-.301 1.84l-.526-.021c.004-.506.079-.973.225-1.401.146-.433.351-.81.615-1.128a2.746 2.746 0 012.167-1.005c.365 0 .693.05.985.15.291.096.54.25.745.465.21.214.369.492.478.834.11.337.164.75.164 1.237V97h-1.271v-4.86c0-.388-.057-.698-.171-.93a1.05 1.05 0 00-.499-.513c-.219-.11-.488-.164-.807-.164-.314 0-.601.066-.861.198a2.065 2.065 0 00-.663.547 2.763 2.763 0 00-.581 1.743zm9.844 4.115c-.515 0-.982-.087-1.402-.26a3.187 3.187 0 01-1.073-.745 3.308 3.308 0 01-.683-1.135 4.15 4.15 0 01-.24-1.436v-.287c0-.601.089-1.137.267-1.606.178-.474.419-.875.724-1.203a3.108 3.108 0 011.04-.745 2.982 2.982 0 011.203-.253c.528 0 .984.09 1.367.273.387.183.704.438.95.766.246.323.428.706.547 1.148a5.5 5.5 0 01.178 1.436v.567h-5.524v-1.032h4.259v-.096a3.162 3.162 0 00-.205-.957 1.72 1.72 0 00-.547-.765c-.251-.2-.592-.301-1.025-.301a1.72 1.72 0 00-1.415.718 2.675 2.675 0 00-.404.868 4.43 4.43 0 00-.143 1.182v.287c0 .351.048.682.143.992.101.305.244.574.431.806.191.233.422.415.69.547.274.132.584.198.93.198.447 0 .825-.09 1.135-.273.31-.182.581-.426.813-.731l.766.608c-.16.242-.362.472-.608.69-.247.22-.55.397-.91.534-.355.136-.777.205-1.264.205zm12.134-2.099c0-.182-.042-.35-.124-.506-.077-.16-.239-.303-.485-.43-.241-.133-.606-.246-1.094-.342a8.681 8.681 0 01-1.114-.308 3.39 3.39 0 01-.841-.43 1.804 1.804 0 01-.526-.595 1.66 1.66 0 01-.185-.8c0-.292.064-.567.192-.827.132-.26.316-.49.553-.69.242-.201.531-.358.869-.472.337-.114.713-.171 1.128-.171.592 0 1.098.105 1.517.314.419.21.741.49.964.841.223.346.335.731.335 1.155h-1.265c0-.205-.061-.403-.184-.594a1.364 1.364 0 00-.527-.486c-.227-.127-.508-.191-.84-.191-.351 0-.636.055-.855.164-.214.105-.371.24-.472.403a1.022 1.022 0 00-.075.889c.05.105.137.203.26.294.123.086.296.168.519.246.224.077.509.155.855.232.606.137 1.105.301 1.497.493.392.191.684.426.875.704.191.278.287.615.287 1.011a1.97 1.97 0 01-.786 1.586 2.89 2.89 0 01-.902.452 4.035 4.035 0 01-1.169.157c-.652 0-1.203-.117-1.655-.349-.451-.232-.793-.533-1.025-.902a2.163 2.163 0 01-.349-1.17h1.272c.018.347.118.623.301.828.182.2.405.344.67.43.264.083.526.124.786.124.346 0 .635-.046.868-.137.237-.091.417-.216.54-.376a.872.872 0 00.185-.547zm7.451.253v-5.688h1.271V97h-1.21l-.061-1.709zm.239-1.559l.526-.013c0 .492-.052.948-.157 1.367-.1.415-.264.775-.492 1.08a2.324 2.324 0 01-.896.718c-.369.168-.818.253-1.346.253a3 3 0 01-.992-.157 1.978 1.978 0 01-.765-.486 2.204 2.204 0 01-.499-.854c-.114-.351-.171-.773-.171-1.265v-4.772h1.265v4.786c0 .332.036.608.109.827.077.214.18.385.308.513.132.123.278.21.437.26.164.05.333.075.506.075.538 0 .964-.103 1.278-.308.315-.21.54-.49.677-.841.141-.355.212-.75.212-1.183zm7.321 2.003v-3.807c0-.292-.059-.545-.178-.76a1.16 1.16 0 00-.519-.505c-.232-.118-.52-.178-.861-.178-.319 0-.6.055-.841.164-.237.11-.424.253-.561.431a.944.944 0 00-.198.574h-1.265c0-.264.069-.526.205-.786.137-.26.333-.494.588-.704.26-.214.57-.383.93-.506.365-.127.77-.191 1.217-.191.538 0 1.012.09 1.422.273.414.183.738.458.97.827.237.365.356.823.356 1.374v3.446c0 .246.02.508.061.786.046.278.112.517.199.718V97h-1.32a2.334 2.334 0 01-.15-.581 4.613 4.613 0 01-.055-.684zm.219-3.22l.014.89h-1.279c-.36 0-.681.029-.964.088a2.201 2.201 0 00-.71.253 1.197 1.197 0 00-.438.43c-.1.17-.15.368-.15.596 0 .232.052.444.157.635.105.192.262.344.472.458.214.11.476.164.786.164a2.08 2.08 0 001.025-.246c.296-.164.531-.364.704-.601.178-.237.274-.468.287-.69l.54.608a1.841 1.841 0 01-.259.635 3.064 3.064 0 01-1.402 1.197 2.715 2.715 0 01-1.08.205c-.501 0-.941-.098-1.319-.294a2.25 2.25 0 01-.875-.786 2.082 2.082 0 01-.308-1.115c0-.396.078-.745.233-1.045.155-.306.378-.559.669-.76.292-.204.643-.36 1.053-.464.41-.105.868-.157 1.374-.157h1.47zm7.766-1.442V97h-1.272v-7.397h1.203l.069 1.47zm-.26 1.949l-.588-.021c.004-.506.071-.973.198-1.401.128-.433.317-.81.568-1.128.25-.32.562-.565.936-.739.374-.177.807-.266 1.299-.266.346 0 .665.05.957.15.292.096.545.249.759.458.214.21.38.479.499.807.118.328.177.724.177 1.19V97h-1.264v-4.867c0-.388-.066-.697-.198-.93a1.135 1.135 0 00-.547-.506 1.973 1.973 0 00-.834-.164c-.374 0-.686.066-.937.198-.25.133-.451.315-.601.547-.151.233-.26.5-.328.8a4.46 4.46 0 00-.096.944zm4.792-.698l-.848.26c.005-.406.071-.795.198-1.169.133-.374.322-.706.568-.998.25-.292.558-.522.923-.69.364-.174.781-.26 1.251-.26.396 0 .747.052 1.052.157.31.105.57.267.78.485.214.215.376.49.485.828.109.337.164.738.164 1.203V97h-1.271v-4.874c0-.415-.067-.736-.199-.964a1.03 1.03 0 00-.547-.485 2.183 2.183 0 00-.834-.144c-.278 0-.524.048-.738.144a1.53 1.53 0 00-.54.396 1.738 1.738 0 00-.335.568 2.105 2.105 0 00-.109.683zm9.556 4.813c-.515 0-.982-.087-1.401-.26a3.177 3.177 0 01-1.073-.745 3.326 3.326 0 01-.684-1.135 4.174 4.174 0 01-.239-1.436v-.287c0-.601.089-1.137.267-1.606.177-.474.419-.875.724-1.203a3.114 3.114 0 011.039-.745 2.989 2.989 0 011.203-.253c.529 0 .985.09 1.368.273.387.183.704.438.95.766.246.323.428.706.547 1.148.118.438.177.916.177 1.436v.567h-5.523v-1.032h4.259v-.096a3.162 3.162 0 00-.205-.957 1.727 1.727 0 00-.547-.765c-.251-.2-.593-.301-1.026-.301a1.724 1.724 0 00-1.415.718 2.695 2.695 0 00-.403.868 4.388 4.388 0 00-.144 1.182v.287c0 .351.048.682.144.992.1.305.244.574.431.806.191.233.421.415.69.547.274.132.583.198.93.198.446 0 .825-.09 1.135-.273.309-.182.581-.426.813-.731l.766.608c-.16.242-.363.472-.609.69a2.9 2.9 0 01-.909.534c-.355.136-.777.205-1.265.205zm5.62-5.954V97h-1.265v-7.397h1.196l.069 1.58zm-.301 1.838l-.527-.02c.005-.506.08-.973.226-1.401.146-.433.351-.81.615-1.128a2.746 2.746 0 012.167-1.005c.365 0 .693.05.985.15.291.096.54.25.745.465.209.214.369.492.478.834.11.337.164.75.164 1.237V97h-1.271v-4.86c0-.388-.057-.698-.171-.93a1.05 1.05 0 00-.499-.513c-.219-.11-.488-.164-.807-.164-.314 0-.601.066-.861.198a2.065 2.065 0 00-.663.547 2.763 2.763 0 00-.581 1.743zm9.871-3.418v.971h-3.999v-.97h3.999zm-2.646-1.797h1.265v7.362c0 .25.039.44.116.567a.558.558 0 00.301.253c.123.041.255.062.397.062.104 0 .214-.01.328-.028.118-.022.207-.04.266-.054l.007 1.032c-.1.032-.232.061-.396.089-.16.032-.354.048-.581.048-.31 0-.595-.062-.855-.185a1.373 1.373 0 01-.622-.615c-.15-.292-.226-.684-.226-1.176v-7.355zm7.199 9.33c-.515 0-.982-.086-1.402-.259a3.187 3.187 0 01-1.073-.745 3.326 3.326 0 01-.684-1.135 4.174 4.174 0 01-.239-1.436v-.287c0-.601.089-1.137.267-1.606.178-.474.419-.875.724-1.203a3.114 3.114 0 011.039-.745 2.99 2.99 0 011.204-.253c.528 0 .984.09 1.367.273.387.183.704.438.95.766.246.323.428.706.547 1.148a5.5 5.5 0 01.178 1.436v.567h-5.524v-1.032h4.259v-.096a3.162 3.162 0 00-.205-.957 1.72 1.72 0 00-.547-.765c-.251-.2-.592-.301-1.025-.301a1.718 1.718 0 00-1.415.718 2.675 2.675 0 00-.404.868 4.43 4.43 0 00-.143 1.182v.287c0 .351.048.682.143.992.1.305.244.574.431.806.191.233.421.415.69.547.274.132.584.198.93.198.447 0 .825-.09 1.135-.273.31-.182.581-.426.813-.731l.766.608c-.16.242-.362.472-.609.69a2.9 2.9 0 01-.909.534c-.355.136-.777.205-1.264.205zm10.896 0c-.515 0-.982-.086-1.401-.259a3.167 3.167 0 01-1.073-.745 3.295 3.295 0 01-.684-1.135 4.15 4.15 0 01-.239-1.436v-.287c0-.601.089-1.137.266-1.606.178-.474.42-.875.725-1.203a3.104 3.104 0 011.039-.745 2.982 2.982 0 011.203-.253c.529 0 .984.09 1.367.273.388.183.704.438.95.766.247.323.429.706.547 1.148.119.438.178.916.178 1.436v.567h-5.523v-1.032h4.258v-.096a3.132 3.132 0 00-.205-.957 1.72 1.72 0 00-.547-.765c-.25-.2-.592-.301-1.025-.301a1.724 1.724 0 00-1.415.718 2.674 2.674 0 00-.403.868 4.388 4.388 0 00-.144 1.182v.287c0 .351.048.682.144.992.1.305.244.574.43.806.192.233.422.415.691.547.273.132.583.198.929.198.447 0 .825-.09 1.135-.273.31-.182.581-.426.814-.731l.765.608a3.522 3.522 0 01-.608.69 2.9 2.9 0 01-.909.534c-.356.136-.777.205-1.265.205zm7.492-3.752v-.157c0-.534.078-1.028.233-1.484.155-.46.378-.859.67-1.196a2.988 2.988 0 011.059-.793c.415-.192.88-.287 1.395-.287.519 0 .986.096 1.401.287.419.187.775.451 1.067.793.296.337.521.736.676 1.196.155.456.233.95.233 1.484v.157c0 .533-.078 1.028-.233 1.483-.155.456-.38.855-.676 1.197a3.103 3.103 0 01-1.06.792c-.41.187-.875.28-1.395.28-.519 0-.986-.093-1.401-.28a3.165 3.165 0 01-1.066-.792 3.609 3.609 0 01-.67-1.197 4.579 4.579 0 01-.233-1.483zm1.265-.157v.157c0 .369.043.718.13 1.046.086.323.216.61.39.861.177.25.398.449.663.595.264.141.572.212.922.212.347 0 .65-.071.91-.212.264-.146.483-.344.656-.595.173-.25.303-.538.39-.861.091-.328.136-.677.136-1.046v-.157c0-.365-.045-.71-.136-1.033a2.661 2.661 0 00-.397-.868 1.885 1.885 0 00-.656-.601 1.841 1.841 0 00-.916-.22c-.347 0-.652.074-.916.22-.26.145-.479.346-.656.601-.174.25-.304.54-.39.868-.087.324-.13.668-.13 1.033zm14.834 1.811c0-.182-.041-.35-.123-.506-.078-.16-.239-.303-.485-.43-.242-.133-.607-.246-1.094-.342a8.636 8.636 0 01-1.114-.308 3.356 3.356 0 01-.841-.43 1.807 1.807 0 01-.527-.595 1.659 1.659 0 01-.184-.8c0-.292.064-.567.191-.827.132-.26.317-.49.554-.69.241-.201.531-.358.868-.472.337-.114.713-.171 1.128-.171.592 0 1.098.105 1.518.314.419.21.74.49.963.841.224.346.335.731.335 1.155h-1.264c0-.205-.062-.403-.185-.594a1.361 1.361 0 00-.526-.486c-.228-.127-.508-.191-.841-.191-.351 0-.636.055-.854.164-.215.105-.372.24-.472.403a1.013 1.013 0 00-.075.889.81.81 0 00.259.294c.123.086.297.168.52.246.223.077.508.155.854.232.607.137 1.106.301 1.497.493.392.191.684.426.875.704.192.278.288.615.288 1.011 0 .324-.069.62-.205.89a1.974 1.974 0 01-.582.696c-.25.192-.551.342-.902.451a4.03 4.03 0 01-1.169.158c-.652 0-1.203-.117-1.654-.349-.451-.232-.793-.533-1.026-.902a2.161 2.161 0 01-.348-1.17h1.271c.019.347.119.623.301.828.182.2.406.344.67.43.264.083.526.124.786.124.347 0 .636-.046.868-.137.237-.091.417-.216.54-.376a.872.872 0 00.185-.547zm5.995 2.099c-.515 0-.982-.087-1.401-.26a3.18 3.18 0 01-1.074-.745 3.308 3.308 0 01-.683-1.135 4.15 4.15 0 01-.239-1.436v-.287c0-.601.088-1.137.266-1.606.178-.474.419-.875.725-1.203a3.104 3.104 0 011.039-.745 2.982 2.982 0 011.203-.253c.529 0 .984.09 1.367.273.388.183.704.438.95.766.246.323.429.706.547 1.148.119.438.178.916.178 1.436v.567h-5.523v-1.032h4.258v-.096a3.132 3.132 0 00-.205-.957 1.72 1.72 0 00-.547-.765c-.25-.2-.592-.301-1.025-.301a1.724 1.724 0 00-1.415.718 2.674 2.674 0 00-.403.868 4.388 4.388 0 00-.144 1.182v.287c0 .351.048.682.144.992.1.305.243.574.43.806.192.233.422.415.691.547.273.132.583.198.929.198.447 0 .825-.09 1.135-.273.31-.182.581-.426.814-.731l.765.608a3.522 3.522 0 01-.608.69 2.9 2.9 0 01-.909.534c-.356.136-.777.205-1.265.205zm8.88-1.846v-5.688h1.271V97h-1.21l-.061-1.709zm.239-1.559l.527-.013c0 .492-.053.948-.158 1.367-.1.415-.264.775-.492 1.08a2.328 2.328 0 01-.895.718c-.369.168-.818.253-1.347.253-.36 0-.69-.053-.991-.157a1.982 1.982 0 01-.766-.486 2.217 2.217 0 01-.499-.854c-.114-.351-.171-.773-.171-1.265v-4.772h1.265v4.786c0 .332.036.608.109.827.078.214.18.385.308.513.132.123.278.21.437.26.164.05.333.075.506.075.538 0 .964-.103 1.279-.308.314-.21.54-.49.676-.841a3.16 3.16 0 00.212-1.183zm9.393 2.366c.301 0 .579-.062.834-.185a1.72 1.72 0 00.629-.506 1.41 1.41 0 00.28-.745h1.203a2.26 2.26 0 01-.444 1.224 3.032 3.032 0 01-1.06.909 3.072 3.072 0 01-1.442.342c-.556 0-1.042-.098-1.456-.294a2.895 2.895 0 01-1.026-.807 3.606 3.606 0 01-.608-1.176 4.968 4.968 0 01-.198-1.415v-.287c0-.496.066-.966.198-1.408.137-.447.339-.84.608-1.183.274-.341.616-.61 1.026-.806.414-.196.9-.294 1.456-.294.579 0 1.084.118 1.517.355a2.61 2.61 0 011.019.957c.251.401.387.857.41 1.368h-1.203a1.817 1.817 0 00-.26-.828 1.621 1.621 0 00-.601-.588 1.684 1.684 0 00-.882-.225c-.388 0-.713.077-.978.232-.26.15-.467.356-.622.615-.15.256-.26.54-.328.855-.064.31-.096.627-.096.95v.287c0 .324.032.643.096.957.064.315.171.6.321.855.155.255.363.46.622.615.265.15.593.226.985.226zm4.033-2.714v-.157c0-.534.077-1.028.232-1.484.155-.46.379-.859.67-1.196a2.992 2.992 0 011.06-.793 3.288 3.288 0 011.394-.287c.52 0 .987.096 1.402.287a2.97 2.97 0 011.066.793c.296.337.522.736.677 1.196.155.456.232.95.232 1.484v.157c0 .533-.077 1.028-.232 1.483a3.555 3.555 0 01-.677 1.197 3.1 3.1 0 01-1.059.792 3.33 3.33 0 01-1.395.28c-.519 0-.987-.093-1.401-.28a3.178 3.178 0 01-1.067-.792 3.627 3.627 0 01-.67-1.197 4.579 4.579 0 01-.232-1.483zm1.265-.157v.157c0 .369.043.718.13 1.046.086.323.216.61.389.861.178.25.399.449.663.595.265.141.572.212.923.212.346 0 .65-.071.909-.212.265-.146.483-.344.657-.595.173-.25.303-.538.389-.861.091-.328.137-.677.137-1.046v-.157c0-.365-.046-.71-.137-1.033a2.66 2.66 0 00-.396-.868 1.879 1.879 0 00-.657-.601 1.839 1.839 0 00-.916-.22c-.346 0-.651.074-.916.22a1.976 1.976 0 00-.656.601c-.173.25-.303.54-.389.868-.087.324-.13.668-.13 1.033zm8.319-2.461V97h-1.265v-7.397h1.231l.034 1.163zm2.311-1.204l-.007 1.176a1.82 1.82 0 00-.301-.04 3.203 3.203 0 00-.315-.014c-.291 0-.549.045-.772.136a1.604 1.604 0 00-.567.383c-.155.164-.278.36-.37.588-.086.223-.143.47-.17.738l-.356.205c0-.446.043-.865.13-1.257.091-.392.23-.739.417-1.04.187-.305.424-.542.711-.71.292-.174.638-.26 1.039-.26.091 0 .196.011.314.034a.94.94 0 01.247.061zm2.433 1.463v8.819h-1.271v-10.24h1.162l.109 1.421zm4.984 2.215v.144c0 .537-.064 1.037-.192 1.497a3.669 3.669 0 01-.56 1.19c-.242.337-.54.599-.896.785-.355.187-.763.28-1.224.28-.469 0-.884-.077-1.244-.232a2.457 2.457 0 01-.916-.676 3.461 3.461 0 01-.601-1.067 6.18 6.18 0 01-.301-1.401v-.766a6.416 6.416 0 01.308-1.47c.15-.433.348-.802.594-1.107.251-.31.554-.545.909-.704a2.91 2.91 0 011.231-.246 2.7 2.7 0 011.237.273c.36.178.663.433.909.766.246.332.431.731.554 1.196.128.46.192.973.192 1.538zm-1.272.144v-.144c0-.369-.039-.715-.116-1.039a2.637 2.637 0 00-.362-.861 1.729 1.729 0 00-.616-.588 1.747 1.747 0 00-.895-.219c-.319 0-.597.055-.834.164-.233.11-.431.258-.595.445a2.363 2.363 0 00-.403.629 3.56 3.56 0 00-.226.724v1.77c.091.32.219.62.383.903.164.278.383.503.656.677.274.168.618.253 1.032.253.342 0 .636-.071.882-.212.251-.146.456-.344.616-.595.164-.25.284-.538.362-.861.077-.328.116-.677.116-1.046zm2.55 0v-.157c0-.534.077-1.028.232-1.484.155-.46.379-.859.67-1.196a2.992 2.992 0 011.06-.793 3.285 3.285 0 011.394-.287c.52 0 .987.096 1.402.287.419.187.774.451 1.066.793.296.337.522.736.677 1.196.155.456.232.95.232 1.484v.157c0 .533-.077 1.028-.232 1.483a3.555 3.555 0 01-.677 1.197 3.103 3.103 0 01-1.06.792c-.41.187-.875.28-1.394.28-.52 0-.987-.093-1.401-.28a3.168 3.168 0 01-1.067-.792 3.627 3.627 0 01-.67-1.197 4.579 4.579 0 01-.232-1.483zm1.264-.157v.157c0 .369.044.718.13 1.046.087.323.217.61.39.861.178.25.399.449.663.595.264.141.572.212.923.212.346 0 .649-.071.909-.212.264-.146.483-.344.656-.595.174-.25.303-.538.39-.861.091-.328.137-.677.137-1.046v-.157c0-.365-.046-.71-.137-1.033a2.68 2.68 0 00-.396-.868 1.888 1.888 0 00-.657-.601 1.839 1.839 0 00-.916-.22c-.346 0-.651.074-.916.22-.26.145-.478.346-.656.601-.173.25-.303.54-.39.868-.086.324-.13.668-.13 1.033z"
      ></path>
    </svg>
